<?xml version="1.0" standalone="no"?>
<!DOCTYPE svg PUBLIC "-//W3C//DTD SVG 20010904//EN"
 "http://www.w3.org/TR/2001/REC-SVG-20010904/DTD/svg10.dtd">
<svg version="1.0" xmlns="http://www.w3.org/2000/svg"
 width="500.000000pt" height="500.000000pt" viewBox="0 0 500.000000 500.000000"
 preserveAspectRatio="xMidYMid meet">
<metadata>
Created by potrace 1.14, written by Peter Selinger 2001-2017
</metadata>
<g transform="translate(0.000000,500.000000) scale(0.100000,-0.100000)"
fill="#000000" stroke="none">
<path d="M2345 4799 c-348 -18 -720 -145 -1030 -352 -465 -309 -803 -792 -945
-1350 -52 -206 -72 -371 -72 -592 0 -221 20 -386 72 -592 218 -855 879 -1498
1715 -1669 241 -49 569 -49 810 0 933 190 1642 972 1770 1951 23 172 23 448 0
620 -125 959 -817 1739 -1718 1939 -205 45 -361 57 -602 45z m382 -34 c160
-21 270 -47 416 -95 612 -204 1117 -702 1346 -1327 44 -120 50 -146 29 -125
-7 7 -19 12 -27 12 -8 0 -25 10 -38 22 l-23 21 0 -22 c0 -20 -3 -18 -31 14
-20 23 -40 35 -56 35 -24 0 -25 -3 -20 -36 l6 -36 -33 5 -34 5 -7 -74 c-6 -64
-9 -74 -26 -74 -14 0 -20 -10 -25 -39 -5 -31 -11 -41 -28 -43 -15 -2 -22 -11
-24 -32 -3 -21 -11 -31 -33 -39 -21 -8 -29 -18 -29 -37 -1 -27 -31 -70 -49
-70 -6 0 -11 -9 -11 -19 0 -10 -7 -21 -15 -25 -9 -3 -15 -18 -15 -35 0 -20 -7
-34 -20 -41 -11 -6 -20 -16 -20 -23 0 -7 -13 -21 -29 -30 -17 -10 -33 -27 -37
-39 -9 -28 -25 -45 -50 -49 -10 -2 -27 -21 -37 -42 -10 -20 -24 -37 -31 -37
-7 0 -20 -16 -29 -35 -11 -23 -24 -35 -37 -35 -19 0 -53 -49 -54 -80 -1 -8
-11 -16 -23 -18 -22 -3 -33 -22 -13 -22 6 0 10 -5 10 -11 0 -6 -6 -9 -14 -6
-10 4 -12 0 -9 -14 3 -10 1 -19 -5 -19 -9 0 -25 -36 -23 -52 0 -3 -6 -9 -14
-12 -12 -4 -15 3 -15 33 0 33 -7 45 -44 79 l-44 41 -74 -5 c-40 -3 -84 -9 -98
-14 -26 -9 -74 -19 -335 -75 -88 -19 -161 -33 -162 -31 -1 1 144 191 324 422
179 230 331 428 338 439 9 15 11 91 6 317 l-6 298 -40 39 -40 39 -650 6 c-357
4 -759 7 -893 8 l-242 1 -26 -24 c-58 -54 -61 -65 -79 -254 -9 -99 -20 -218
-26 -265 -5 -47 -12 -144 -16 -215 l-5 -131 47 -38 c45 -37 51 -39 109 -37 33
1 81 6 106 11 25 5 135 18 245 30 110 12 215 25 232 30 43 11 39 4 -84 -141
-54 -63 -181 -213 -283 -333 -102 -120 -197 -232 -212 -250 l-27 -31 3 58 c2
31 -1 57 -6 57 -5 0 -7 4 -4 8 3 5 -6 25 -20 46 -14 20 -22 40 -19 45 8 14 -6
41 -21 41 -8 0 -31 26 -52 58 -20 33 -43 57 -49 55 -7 -3 -17 6 -22 19 -10 25
-73 88 -89 88 -6 0 -18 23 -27 50 -12 36 -22 50 -35 50 -13 0 -20 9 -22 28 -2
16 -12 31 -25 37 -13 5 -23 18 -23 28 0 11 -12 31 -28 46 -59 59 -82 95 -82
128 0 21 -5 33 -14 33 -8 0 -16 16 -20 40 -5 31 -11 40 -26 40 -18 0 -20 7
-20 75 0 74 0 75 -26 75 -24 0 -26 3 -22 31 4 27 0 34 -23 48 -30 17 -35 33
-30 104 2 34 0 37 -23 37 -18 0 -24 4 -20 15 4 8 1 15 -5 15 -6 0 -11 7 -11
15 0 12 -16 15 -85 15 -77 0 -85 -2 -96 -22 -12 -22 -12 -22 -20 -3 -4 11 -8
14 -8 7 -1 -7 -5 -11 -10 -7 -5 3 -17 -2 -25 -11 -76 -75 115 270 241 438 457
606 1209 936 1920 843z m493 -1160 l95 0 3 -232 2 -231 -212 -273 c-581 -751
-551 -710 -542 -743 7 -28 23 -33 42 -14 6 6 14 9 17 6 3 -3 -38 -33 -90 -68
-52 -35 -93 -65 -91 -68 3 -2 25 0 48 6 24 6 75 16 113 22 39 6 90 15 115 20
25 6 140 29 255 51 290 57 334 66 380 78 22 5 41 8 44 6 5 -5 19 -439 20 -606
l1 -107 -127 -6 c-71 -3 -380 -9 -688 -12 -308 -4 -609 -9 -670 -11 -126 -4
-177 -4 -239 0 l-44 2 -6 53 c-3 29 -13 142 -21 253 -15 194 -15 201 3 217 11
9 64 71 119 137 54 66 200 242 324 390 259 312 442 535 452 552 4 6 -58 -18
-138 -53 -127 -56 -192 -81 -145 -55 158 85 154 82 133 103 -20 19 -22 19
-254 -2 -129 -12 -296 -28 -373 -36 -159 -16 -169 -17 -163 -6 3 4 10 66 16
137 14 150 27 281 43 414 l11 94 736 -8 c405 -5 779 -9 831 -10z"/>
</g>
</svg>
